2015026_C4_04_grf
version=1
nRows=12
nColumns=19
inDegrees=no
endheader
time	ground_force_1_vx	ground_force_1_vy	ground_force_1_vz	ground_force_1_px	ground_force_1_py	ground_force_1_pz	ground_force_1_mx	ground_force_1_my	ground_force_1_mz	ground_force_2_vx	ground_force_2_vy	ground_force_2_vz	ground_force_2_px	ground_force_2_py	ground_force_2_pz	ground_force_2_mx	ground_force_2_my	ground_force_2_mz
      0.40000000	      3.08222319	    394.78529990	     19.62945014	      0.21777605	      0.00000000	     -0.33235219	      0.00000000	     -0.10983452	     -0.00000000	      0.00000000	      0.00000000	      0.00000000	      0.00000000	      0.00000000	      0.00000000	      0.00000000	      0.00000000	      0.00000000
      0.40100000	      3.37733324	    395.61600983	     19.80193108	      0.21834884	      0.00000000	     -0.33239271	      0.00000000	     -0.10300134	     -0.00000000	      0.00000000	      0.00000000	      0.00000000	      0.00000000	      0.00000000	      0.00000000	      0.00000000	      0.00000000	      0.00000000
      0.40200000	      3.67218638	    396.46945894	     19.97725666	      0.21892149	      0.00000000	     -0.33243306	      0.00000000	     -0.09599806	     -0.00000000	      0.00000000	      0.00000000	      0.00000000	      0.00000000	      0.00000000	      0.00000000	      0.00000000	      0.00000000	      0.00000000
      0.40300000	      3.96651293	    397.35208824	     20.15597969	      0.21949391	      0.00000000	     -0.33247310	      0.00000000	     -0.08879738	     -0.00000000	      0.00000000	      0.00000000	      0.00000000	      0.00000000	      0.00000000	      0.00000000	      0.00000000	      0.00000000	      0.00000000
      0.40400000	      4.26025232	    398.25868234	     20.33728957	      0.22006610	      0.00000000	     -0.33251282	      0.00000000	     -0.08145115	     -0.00000000	      0.00000000	      0.00000000	      0.00000000	      0.00000000	      0.00000000	      0.00000000	      0.00000000	      0.00000000	      0.00000000
      0.40500000	      4.55304666	    399.19592999	     20.52166685	      0.22063795	      0.00000000	     -0.33255207	      0.00000000	     -0.07393989	      0.00000000	      0.00000000	      0.00000000	      0.00000000	      0.00000000	      0.00000000	      0.00000000	      0.00000000	      0.00000000	      0.00000000
      0.40600000	      4.84490977	    400.15823767	     20.70835829	      0.22120952	      0.00000000	     -0.33259091	      0.00000000	     -0.06631151	      0.00000000	      0.00000000	      0.00000000	      0.00000000	      0.00000000	      0.00000000	      0.00000000	      0.00000000	      0.00000000	      0.00000000
      0.40700000	      5.13537833	    401.15251578	     20.89776024	      0.22178071	      0.00000000	     -0.33262917	      0.00000000	     -0.05855781	     -0.00000000	      0.00000000	      0.00000000	      0.00000000	      0.00000000	      0.00000000	      0.00000000	      0.00000000	      0.00000000	      0.00000000
      0.40800000	      5.42454100	    402.17279270	     21.08917683	      0.22235158	      0.00000000	     -0.33266692	      0.00000000	     -0.05072269	      0.00000000	      0.00000000	      0.00000000	      0.00000000	      0.00000000	      0.00000000	      0.00000000	      0.00000000	      0.00000000	      0.00000000
      0.40900000	      5.71182612	    403.22607011	     21.28290832	      0.22292204	      0.00000000	     -0.33270401	      0.00000000	     -0.04281075	      0.00000000	      0.00000000	      0.00000000	      0.00000000	      0.00000000	      0.00000000	      0.00000000	      0.00000000	      0.00000000	      0.00000000
      0.41000000	      5.99741181	    404.30615470	     21.47832960	      0.22349218	      0.00000000	     -0.33274052	      0.00000000	     -0.03485757	      0.00000000	      0.00000000	      0.00000000	      0.00000000	      0.00000000	      0.00000000	      0.00000000	      0.00000000	      0.00000000	      0.00000000
      0.41100000	      6.28063150	    405.42024374	     21.67565599	      0.22406189	      0.00000000	     -0.33277624	      0.00000000	     -0.02687711	      0.00000000	      0.00000000	      0.00000000	      0.00000000	      0.00000000	      0.00000000	      0.00000000	      0.00000000	      0.00000000	      0.00000000
